<svg width="34" height="20" viewBox="0 0 34 20" fill="none" xmlns="http://www.w3.org/2000/svg">
<g id="Group 155" opacity="0.48">
<g id="Vector" opacity="0.72">
<path d="M14.571 19.1211C15.7429 20.293 17.643 20.293 18.8149 19.1211L22.6468 15.2892L18.4028 11.0452L17.2155 12.2326C16.9269 12.5212 16.4589 12.5212 16.1703 12.2326L14.983 11.0452L10.7391 15.2892L14.571 19.1211Z" fill="white"/>
<path d="M33.3859 4.55008L29.1419 0.306152L24.7372 4.71085L28.9812 8.95478L33.3859 4.55008Z" fill="white"/>
<path d="M4.2439 0.306152L-3.05176e-05 4.55008L4.40467 8.95478L8.6486 4.71085L4.2439 0.306152Z" fill="white"/>
</g>
<path id="Vector_2" d="M4.24393 19.6939L4.22911e-07 15.4499L4.4047 11.0452L4.92732 10.5226L5.44993 10L9.69386 5.75607L10.2165 5.23345L10.7391 4.71084L14.571 0.878945C15.7429 -0.292982 17.643 -0.292982 18.8149 0.878945L22.6468 4.71084L23.1694 5.23345L23.692 5.75607L27.936 10L28.4586 10.5226L28.9812 11.0452L33.3859 15.4499L29.142 19.6939L24.7373 15.2892L24.2147 14.7665L23.692 14.2439L19.4481 10L18.9255 9.47739L18.4029 8.95477L17.2156 7.76746C16.9269 7.47882 16.459 7.47882 16.1703 7.76746L14.983 8.95477L14.4604 9.47739L13.9378 10L9.69386 14.2439L9.17124 14.7665L8.64863 15.2892L4.24393 19.6939Z" fill="white"/>
</g>
</svg>
