<svg width="177" height="28" viewBox="0 0 177 28" fill="none" xmlns="http://www.w3.org/2000/svg">
<g id="Subtract">
<path fill-rule="evenodd" clip-rule="evenodd" d="M61.4652 0V27.5758H66.5561V24.2951C66.5838 24.3567 66.6121 24.4179 66.6409 24.4788C67.15 25.5253 67.8712 26.3737 68.8046 27.0242C69.7662 27.6747 71.0672 28 72.7076 28C73.9238 28 75.0551 27.7455 76.1015 27.2364C77.1763 26.7273 78.0955 25.9919 78.8591 25.0303C79.6227 24.0687 80.2308 22.9091 80.6833 21.5515C81.1359 20.1939 81.3621 18.6667 81.3621 16.9697C81.3621 15.2445 81.1359 13.703 80.6833 12.3455C80.2591 10.9879 79.651 9.84244 78.8591 8.9091C78.0955 7.94749 77.1763 7.21213 76.1015 6.70304C75.0551 6.19395 73.9238 5.93941 72.7076 5.93941C71.0672 5.93941 69.7662 6.26466 68.8046 6.91517C67.8712 7.56567 67.15 8.41416 66.6409 9.46062C66.6121 9.51988 66.5838 9.57958 66.5561 9.63975V0H61.4652ZM67.7015 22.1879C66.8531 20.9717 66.4288 19.2323 66.4288 16.9697C66.4288 14.6788 66.8531 12.9394 67.7015 11.7515C68.55 10.5354 69.7945 9.92729 71.4349 9.92729C73.0753 9.92729 74.3197 10.5354 75.1682 11.7515C76.0167 12.9394 76.4409 14.6788 76.4409 16.9697C76.4409 19.2606 76.0167 21.0141 75.1682 22.2303C74.3197 23.4182 73.0753 24.0121 71.4349 24.0121C69.7945 24.0121 68.55 23.404 67.7015 22.1879Z" fill="white"/>
<path fill-rule="evenodd" clip-rule="evenodd" d="M44.2364 22.2303C43.5298 21.2501 43.1079 19.9208 42.9708 18.2424H57.8546L57.897 16.9697C57.897 13.5475 57.0061 10.8606 55.2243 8.9091C53.4708 6.92931 51.0526 5.93941 47.9697 5.93941C44.8869 5.93941 42.4546 6.92931 40.6728 8.9091C38.891 10.8606 38.0001 13.5475 38.0001 16.9697C38.0001 20.4202 38.891 23.1212 40.6728 25.0727C42.4546 27.0242 44.8869 28 47.9697 28C50.4586 28 52.5091 27.3636 54.1213 26.0909C55.7617 24.7899 56.8788 22.9939 57.4728 20.703H52.4243C52.0566 21.8061 51.5051 22.6404 50.7697 23.2061C50.0344 23.7434 49.1011 24.0121 47.9697 24.0121C46.3576 24.0121 45.1132 23.4182 44.2364 22.2303ZM43.0777 14.7636H52.8194C52.6262 13.527 52.2541 12.523 51.7031 11.7515C50.8546 10.5354 49.6101 9.92729 47.9697 9.92729C46.3293 9.92729 45.0708 10.5354 44.194 11.7515C43.643 12.523 43.2709 13.527 43.0777 14.7636Z" fill="white"/>
<path d="M21.2121 27.5758H27.3636L34.5757 6.36365H29.1454L24.1959 21.9284L19.5576 6.36365H15.0182L10.396 21.9791L5.4303 6.36365H0L7.21212 27.5758H13.3636L17.2879 14.0439L21.2121 27.5758Z" fill="white"/>
<path d="M84.803 27.5758H104.742V22.7818H97.6576V12.9818C97.6576 10.8041 97.0919 9.16365 95.9606 8.06062C94.8576 6.92931 93.2313 6.36365 91.0818 6.36365H84.803V11.4546H92.0151C92.1283 11.4546 92.2131 11.4687 92.2697 11.497C92.3545 11.497 92.4111 11.5111 92.4394 11.5394C92.496 11.5677 92.5242 11.6243 92.5242 11.7091C92.5525 11.794 92.5667 11.8929 92.5667 12.0061V22.7818H84.803V27.5758Z" fill="white"/>
<path d="M92.397 4.11517H97.1485V1.85437e-05H92.397V4.11517Z" fill="white"/>
<path d="M124.854 25.6667C126.551 24.1111 127.583 21.9333 127.951 19.1333H123.03C122.804 20.7455 122.28 21.9616 121.46 22.7818C120.64 23.602 119.551 24.0121 118.193 24.0121C116.581 24.0121 115.337 23.4182 114.46 22.2303C113.583 21.0141 113.145 19.2606 113.145 16.9697C113.145 14.6788 113.569 12.9394 114.418 11.7515C115.294 10.5354 116.553 9.92729 118.193 9.92729C119.494 9.92729 120.541 10.3091 121.333 11.0727C122.153 11.8364 122.705 12.9677 122.987 14.4667H127.909C127.484 11.7798 126.424 9.68688 124.727 8.18789C123.058 6.6889 120.88 5.93941 118.193 5.93941C115.111 5.93941 112.678 6.92931 110.896 8.9091C109.115 10.8606 108.224 13.5475 108.224 16.9697C108.224 20.4202 109.115 23.1212 110.896 25.0727C112.678 27.0242 115.111 28 118.193 28C120.965 28 123.185 27.2222 124.854 25.6667Z" fill="white"/>
<path fill-rule="evenodd" clip-rule="evenodd" d="M151.294 16.9697C151.294 13.5475 150.403 10.8606 148.621 8.9091C146.868 6.92931 144.449 5.93941 141.367 5.93941C138.284 5.93941 135.851 6.92931 134.07 8.9091C132.288 10.8606 131.397 13.5475 131.397 16.9697C131.397 20.4202 132.288 23.1212 134.07 25.0727C135.851 27.0242 138.284 28 141.367 28C144.478 28 146.91 27.0242 148.664 25.0727C150.417 23.1212 151.294 20.4202 151.294 16.9697ZM146.373 16.9697C146.373 19.2606 145.948 21.0141 145.1 22.2303C144.251 23.4182 143.007 24.0121 141.367 24.0121C139.754 24.0121 138.51 23.4182 137.633 22.2303C136.756 21.0141 136.318 19.2606 136.318 16.9697C136.318 14.6788 136.742 12.9394 137.591 11.7515C138.468 10.5354 139.726 9.92729 141.367 9.92729C143.007 9.92729 144.251 10.5354 145.1 11.7515C145.948 12.9394 146.373 14.6788 146.373 16.9697Z" fill="white"/>
<path d="M175.565 13.7879L170.474 13.7455C170.474 13.2364 170.375 12.7697 170.177 12.3455C170.007 11.8929 169.71 11.5111 169.286 11.2C168.89 10.8889 168.367 10.6485 167.717 10.4788C167.094 10.2808 166.345 10.1818 165.468 10.1818C164.789 10.1818 164.167 10.2243 163.601 10.3091C163.036 10.3657 162.527 10.4929 162.074 10.6909C161.65 10.8889 161.31 11.1434 161.056 11.4546C160.83 11.7374 160.717 12.1051 160.717 12.5576C160.717 13.3212 161.098 13.8727 161.862 14.2121C162.654 14.5232 163.63 14.7636 164.789 14.9333C165.949 15.0748 167.207 15.2162 168.565 15.3576C169.923 15.499 171.181 15.7818 172.341 16.2061C173.5 16.602 174.462 17.2101 175.226 18.0303C176.018 18.8505 176.413 20.0101 176.413 21.5091C176.413 22.4707 176.145 23.3475 175.607 24.1394C175.07 24.903 174.321 25.5677 173.359 26.1333C172.397 26.6707 171.238 27.095 169.88 27.4061C168.523 27.7172 167.052 27.8727 165.468 27.8727C163.658 27.8727 162.074 27.6748 160.717 27.2788C159.387 26.8828 158.284 26.3172 157.407 25.5818C156.531 24.8465 155.866 23.9838 155.413 22.9939C154.989 21.9758 154.777 20.8444 154.777 19.6H159.868C159.868 21.099 160.349 22.1737 161.31 22.8242C162.3 23.4465 163.686 23.7576 165.468 23.7576C167.335 23.7576 168.777 23.5596 169.795 23.1636C170.814 22.7677 171.323 22.0606 171.323 21.0424C171.323 20.3919 170.927 19.9253 170.135 19.6424C169.371 19.3313 168.409 19.1051 167.25 18.9636C166.09 18.8222 164.832 18.6808 163.474 18.5394C162.117 18.398 160.858 18.1293 159.698 17.7333C158.539 17.3091 157.563 16.6869 156.771 15.8667C156.007 15.0465 155.626 13.9152 155.626 12.4727C155.626 11.4828 155.866 10.5919 156.347 9.80001C156.828 9.00809 157.492 8.34345 158.341 7.80607C159.218 7.24042 160.264 6.80203 161.48 6.49092C162.696 6.17981 164.026 6.02426 165.468 6.02426C166.967 6.02426 168.339 6.22224 169.583 6.6182C170.828 6.98587 171.888 7.5091 172.765 8.18789C173.67 8.86668 174.363 9.68688 174.844 10.6485C175.325 11.5818 175.565 12.6283 175.565 13.7879Z" fill="white"/>
</g>
</svg>
