<svg width="82" height="40" viewBox="0 0 82 40" fill="none" xmlns="http://www.w3.org/2000/svg">
<g id="Vector">
<path d="M4.39245 25.3292H5.64637L6.02254 26.4577H6.83759L5.52097 22.4451H4.58054L3.26392 26.4577H4.01627L4.39245 25.3292ZM4.83132 23.8245C4.89402 23.5737 4.95671 23.3229 5.01941 23.0721C5.0821 23.3229 5.1448 23.5737 5.20749 23.8245L5.52097 24.8276H4.51784L4.83132 23.8245ZM8.2796 26.4577C8.65577 26.4577 8.96925 26.2696 9.09464 26.0188V26.2696C9.09464 26.8966 8.71847 27.1473 8.2796 27.1473C7.90342 27.1473 7.65264 27.0219 7.46455 26.8966L7.27646 27.4608C7.52724 27.5862 7.90342 27.7116 8.2796 27.7116C8.65577 27.7116 9.09464 27.6489 9.40812 27.3354C9.7216 27.0846 9.84699 26.6458 9.84699 26.0188V24.3887C9.84699 24.0125 9.84699 23.7618 9.84699 23.5737H9.22003V23.9498C9.09464 23.6991 8.84386 23.511 8.40499 23.511C7.71533 23.511 7.08837 24.0752 7.08837 25.0157C7.08837 25.8934 7.58994 26.4577 8.2796 26.4577ZM8.53038 24.0752C8.84386 24.0752 9.03195 24.2633 9.09464 24.5141C9.09464 24.5768 9.09464 24.6395 9.09464 24.7022V25.2038C9.09464 25.2665 9.09464 25.3918 9.09464 25.4545C9.03195 25.7053 8.78116 25.8934 8.53038 25.8934C8.09151 25.8934 7.84072 25.5172 7.84072 25.0157C7.84072 24.4514 8.1542 24.0752 8.53038 24.0752ZM11.8533 22.6959L12.1667 23.1975H12.6683L12.104 22.3197H11.6025L11.0382 23.1975H11.5398L11.8533 22.6959ZM11.9787 26.5204C12.4175 26.5204 12.731 26.4577 12.9818 26.3323L12.8564 25.8307C12.6056 25.8934 12.4175 25.9561 12.0413 25.9561C11.5398 25.9561 11.1636 25.7053 11.1636 25.2038H13.1072C13.1072 25.1411 13.1072 25.0157 13.1072 24.8903C13.1072 24.2633 12.7937 23.511 11.8533 23.511C10.9128 23.511 10.4113 24.2633 10.4113 25.0784C10.474 25.9561 11.0382 26.5204 11.9787 26.5204ZM11.8533 24.0125C12.3548 24.0125 12.4802 24.4514 12.4802 24.7022H11.2263C11.2263 24.4514 11.4144 24.0125 11.8533 24.0125ZM13.7341 26.4577H14.4865V24.7649C14.4865 24.7022 14.4865 24.5768 14.5492 24.5141C14.6119 24.326 14.8 24.0752 15.1135 24.0752C15.4896 24.0752 15.6777 24.3887 15.6777 24.8276V26.4577H16.4301V24.7649C16.4301 23.8245 15.9285 23.511 15.4269 23.511C14.9254 23.511 14.6119 23.7618 14.4865 24.0125L14.4238 23.5737H13.7968C13.7968 23.8244 13.7968 24.0752 13.7968 24.4514V26.4577H13.7341ZM18.4363 26.5204C18.8125 26.5204 19.126 26.4577 19.2514 26.395L19.126 25.8307C19.0006 25.8934 18.8125 25.9561 18.5617 25.9561C18.0602 25.9561 17.684 25.6426 17.684 25.0157C17.684 24.5141 17.9975 24.0752 18.5617 24.0752C18.8125 24.0752 19.0006 24.1379 19.126 24.2006L19.2514 23.6364C19.0633 23.5737 18.8125 23.511 18.5617 23.511C17.5586 23.511 16.9316 24.2006 16.9316 25.0784C16.9316 25.9561 17.5586 26.5204 18.4363 26.5204ZM19.8156 26.4577H20.568V23.5737H19.8156V26.4577ZM20.1291 23.1975C20.3799 23.1975 20.568 23.0094 20.568 22.8213C20.568 22.5705 20.3799 22.4451 20.1291 22.4451C19.8783 22.4451 19.6903 22.6332 19.6903 22.8213C19.753 23.0094 19.941 23.1975 20.1291 23.1975ZM21.1323 25.7053C21.1323 26.1442 21.4457 26.5831 22.01 26.5831C22.3862 26.5831 22.6997 26.395 22.8877 26.2069L22.9504 26.5204H23.6401C23.5774 26.3323 23.5774 26.0815 23.5774 25.8307V24.7649C23.5774 24.1379 23.3266 23.511 22.3862 23.511C21.9473 23.511 21.5711 23.6364 21.3203 23.7618L21.4457 24.2633C21.6338 24.1379 21.9473 24.0752 22.1981 24.0752C22.6997 24.0752 22.7624 24.3887 22.7624 24.5768V24.6395C21.7592 24.5768 21.1323 24.953 21.1323 25.7053ZM22.8251 25.0784V25.4545C22.8251 25.5172 22.8251 25.5799 22.8251 25.6426C22.7624 25.8307 22.5743 26.0188 22.2608 26.0188C22.01 26.0188 21.8219 25.8934 21.8219 25.5799C21.8219 25.1411 22.3235 25.0784 22.8251 25.0784ZM26.6495 26.5204C27.0884 26.5204 27.4019 26.3323 27.5899 26.0188L27.6526 26.4577H28.2796C28.2796 26.2696 28.2796 25.9561 28.2796 25.6426V22.2571H27.5272V23.8871C27.4019 23.6991 27.0884 23.511 26.7122 23.511C26.0225 23.511 25.3956 24.0752 25.3956 25.0784C25.3956 25.9561 25.8972 26.5204 26.6495 26.5204ZM26.8376 24.0752C27.1511 24.0752 27.4019 24.326 27.4645 24.5768C27.4645 24.6395 27.4645 24.7022 27.4645 24.7649V25.2038C27.4645 25.2665 27.4645 25.3292 27.4645 25.3918C27.4019 25.7053 27.1511 25.8934 26.8376 25.8934C26.3987 25.8934 26.0852 25.5172 26.0852 24.953C26.1479 24.5141 26.3987 24.0752 26.8376 24.0752ZM31.3517 26.3323L31.2263 25.8307C30.9755 25.8934 30.7874 25.9561 30.4113 25.9561C29.9097 25.9561 29.5335 25.7053 29.5335 25.2038H31.4771C31.4771 25.1411 31.4771 25.0157 31.4771 24.8903C31.4771 24.2633 31.1636 23.511 30.2232 23.511C29.2827 23.511 28.7812 24.2633 28.7812 25.0784C28.7812 25.9561 29.3454 26.5204 30.2859 26.5204C30.7247 26.5204 31.1009 26.4577 31.3517 26.3323ZM30.2232 24.0125C30.7247 24.0125 30.8501 24.4514 30.8501 24.7022H29.5962C29.5335 24.4514 29.7216 24.0125 30.2232 24.0125ZM36.1166 25.9561C36.4928 25.5799 36.7435 25.0784 36.7435 24.3887C36.7435 23.6991 36.4928 23.2602 36.1166 22.884C35.7404 22.5705 35.2388 22.4451 34.4865 22.4451C34.0476 22.4451 33.6714 22.5078 33.2953 22.5078V26.4577C33.5461 26.4577 33.8595 26.5204 34.2984 26.5204C35.1135 26.5204 35.7404 26.3323 36.1166 25.9561ZM34.0476 23.0721C34.173 23.0721 34.2984 23.0094 34.5492 23.0094C35.4896 23.0094 35.9912 23.511 35.9912 24.3887C35.9912 25.3919 35.4269 25.9561 34.4865 25.9561C34.3611 25.9561 34.173 25.9561 34.1103 25.9561V23.0721H34.0476ZM38.6871 26.5204C39.126 26.5204 39.4395 26.4577 39.6903 26.3323L39.5649 25.8307C39.3141 25.8934 39.126 25.9561 38.7498 25.9561C38.3109 25.9561 37.8721 25.7053 37.8721 25.2038H39.8156C39.8156 25.1411 39.8156 25.0157 39.8156 24.8903C39.8156 24.2633 39.5022 23.511 38.5617 23.511C37.6213 23.511 37.1197 24.2633 37.1197 25.0784C37.1824 25.9561 37.7467 26.5204 38.6871 26.5204ZM38.5617 24.0125C39.0633 24.0125 39.1887 24.4514 39.1887 24.7022H37.9348C37.9348 24.4514 38.1229 24.0125 38.5617 24.0125ZM41.1323 26.0188C40.8815 26.0188 40.568 25.8934 40.3799 25.8307L40.2545 26.3323C40.4426 26.4577 40.7561 26.5204 41.1323 26.5204C41.8846 26.5204 42.3235 26.1442 42.3235 25.6426C42.3235 25.2038 42.0727 24.953 41.5711 24.7649C41.195 24.6395 41.0696 24.5141 41.0696 24.3887C41.0696 24.2006 41.195 24.0752 41.4457 24.0752C41.6965 24.0752 41.9473 24.2006 42.0727 24.2633L42.1981 23.7618C42.01 23.6364 41.7592 23.5737 41.4457 23.5737C40.7561 23.5737 40.3799 23.9498 40.3799 24.4514C40.3799 24.7649 40.6307 25.0784 41.195 25.2665C41.5711 25.3918 41.6965 25.5172 41.6965 25.7053C41.5711 25.8934 41.4457 26.0188 41.1323 26.0188ZM44.2044 26.5204C44.6432 26.5204 44.9567 26.4577 45.2075 26.3323L45.0821 25.8307C44.8313 25.8934 44.6432 25.9561 44.2671 25.9561C43.8282 25.9561 43.3893 25.7053 43.3893 25.2038H45.3329C45.3329 25.1411 45.3329 25.0157 45.3329 24.8903C45.3329 24.2633 45.0194 23.511 44.079 23.511C43.1385 23.511 42.637 24.2633 42.637 25.0784C42.6997 25.9561 43.2639 26.5204 44.2044 26.5204ZM44.079 24.0125C44.5805 24.0125 44.7059 24.4514 44.7059 24.7022H43.452C43.452 24.4514 43.6401 24.0125 44.079 24.0125ZM45.9598 26.4577H46.7122V24.7649C46.7122 24.7022 46.7122 24.5768 46.7749 24.5141C46.8376 24.326 47.0257 24.0752 47.3392 24.0752C47.7153 24.0752 47.9034 24.3887 47.9034 24.8276V26.4577H48.6558V24.7649C48.6558 23.8245 48.1542 23.511 47.6526 23.511C47.1511 23.511 46.8376 23.7618 46.7122 24.0125L46.6495 23.5737H46.0225C46.0225 23.8244 46.0225 24.0752 46.0225 24.4514V26.4577H45.9598ZM50.7247 26.4577L51.8533 23.5737H51.1009L50.5993 25.0784C50.5366 25.3292 50.474 25.5799 50.4113 25.8307C50.3486 25.5799 50.2859 25.3292 50.2232 25.0784L49.7216 23.6364H48.9066L49.9724 26.5204H50.7247V26.4577ZM53.4834 26.5204C54.2357 26.5204 54.9881 26.0188 54.9881 24.953C54.9881 24.0752 54.4238 23.4483 53.5461 23.4483C52.6683 23.4483 52.0413 24.0125 52.0413 24.953C52.0413 26.0188 52.6683 26.5204 53.4834 26.5204ZM53.4834 24.0752C53.9849 24.0752 54.173 24.5768 54.173 25.0784C54.173 25.6426 53.8595 26.0815 53.4834 26.0815C53.0445 26.0815 52.7937 25.6426 52.7937 25.0784C52.7937 24.5768 52.9818 24.0752 53.4834 24.0752ZM56.3047 22.2571H55.5523V26.4577H56.3047V22.2571ZM58.5617 26.4577L59.6903 23.5737H58.9379L58.4363 25.0784C58.3736 25.3292 58.3109 25.5799 58.2482 25.8307C58.1856 25.5799 58.1229 25.3292 58.0602 25.0784L57.6213 23.6364H56.8062L57.8721 26.5204H58.5617V26.4577ZM60.4426 23.1975C60.6934 23.1975 60.8815 23.0094 60.8815 22.8213C60.8815 22.5705 60.6934 22.4451 60.4426 22.4451C60.1918 22.4451 60.0037 22.6332 60.0037 22.8213C60.0664 23.0094 60.2545 23.1975 60.4426 23.1975ZM60.1291 26.4577H60.8815V23.5737H60.1291V26.4577ZM62.3235 26.4577V24.7649C62.3235 24.7022 62.3235 24.5768 62.3862 24.5141C62.4489 24.326 62.637 24.0752 62.8877 24.0752C63.2012 24.0752 63.3893 24.3887 63.3893 24.7649V26.4577H64.079V24.7022C64.079 24.6395 64.079 24.5141 64.1417 24.4514C64.2044 24.2633 64.3924 24.0752 64.6432 24.0752C65.0194 24.0752 65.1448 24.3887 65.1448 24.8276V26.395H65.8345V24.7022C65.8345 23.7618 65.3329 23.4483 64.894 23.4483C64.6432 23.4483 64.4551 23.511 64.3298 23.6364C64.2044 23.6991 64.079 23.8245 63.9536 24.0125C63.8282 23.6991 63.5147 23.4483 63.1385 23.4483C62.637 23.4483 62.3862 23.6991 62.2608 23.9498L62.1981 23.511H61.5711C61.5711 23.7618 61.5711 24.0125 61.5711 24.3887V26.4577H62.3235ZM67.9661 26.5204C68.405 26.5204 68.7185 26.4577 68.9692 26.3323L68.8439 25.8307C68.5931 25.8934 68.405 25.9561 68.0288 25.9561C67.5899 25.9561 67.1511 25.7053 67.1511 25.2038H69.0946C69.0946 25.1411 69.0946 25.0157 69.0946 24.8903C69.0946 24.2633 68.7812 23.511 67.8407 23.511C66.9003 23.511 66.3987 24.2633 66.3987 25.0784C66.4614 25.9561 67.0257 26.5204 67.9661 26.5204ZM67.8407 24.0125C68.3423 24.0125 68.4677 24.4514 68.4677 24.7022H67.2138C67.2138 24.4514 67.4019 24.0125 67.8407 24.0125ZM69.7216 26.4577H70.474V24.7649C70.474 24.7022 70.474 24.5768 70.5367 24.5141C70.5993 24.326 70.7874 24.0752 71.1009 24.0752C71.4771 24.0752 71.6652 24.3887 71.6652 24.8276V26.4577H72.4175V24.7649C72.4175 23.8245 71.916 23.511 71.4144 23.511C70.9128 23.511 70.5993 23.7618 70.474 24.0125L70.4113 23.5737H69.7843C69.7843 23.8244 69.7843 24.0752 69.7843 24.4514V26.4577H69.7216ZM74.6119 26.4577V25.8934C74.5492 25.8934 74.4865 25.8934 74.2984 25.8934C74.0476 25.8934 73.9222 25.7053 73.9222 25.3292V24.0752H74.6119V23.511H73.9222V22.7586L73.2326 22.9467V23.511H72.7937V24.0752H73.2326V25.4545C73.2326 25.8307 73.2953 26.0815 73.4834 26.2696C73.6087 26.395 73.8595 26.5204 74.1103 26.5204C74.2984 26.5204 74.4865 26.5204 74.6119 26.4577ZM76.4301 26.5204C77.1824 26.5204 77.9348 26.0188 77.9348 24.953C77.9348 24.0752 77.3705 23.4483 76.4928 23.4483C75.615 23.4483 74.9881 24.0125 74.9881 24.953C74.9881 26.0188 75.615 26.5204 76.4301 26.5204ZM76.4301 24.0752C76.9316 24.0752 77.1197 24.5768 77.1197 25.0784C77.1197 25.6426 76.8062 26.0815 76.4301 26.0815C75.9912 26.0815 75.7404 25.6426 75.7404 25.0784C75.7404 24.5768 75.9285 24.0752 76.4301 24.0752ZM3.13853 28.4013H2.38618V30.0313C2.26079 29.8433 1.94731 29.6552 1.57113 29.6552C0.881476 29.6552 0.254517 30.2821 0.254517 31.2226C0.254517 32.1003 0.81878 32.7273 1.50844 32.7273C1.94731 32.7273 2.26079 32.5392 2.44887 32.2257L2.51157 32.6646H3.13853C3.13853 32.4765 3.13853 32.163 3.13853 31.8495V28.4013ZM2.38618 31.4107C2.38618 31.4734 2.38618 31.5361 2.38618 31.5987C2.32348 31.9122 2.0727 32.1003 1.75922 32.1003C1.32035 32.1003 1.00687 31.7241 1.00687 31.1599C1.00687 30.5956 1.25765 30.2194 1.75922 30.2194C2.0727 30.2194 2.32348 30.4702 2.38618 30.721C2.38618 30.7837 2.38618 30.8464 2.38618 30.9091V31.4107ZM6.14793 30.9091C6.14793 30.2821 5.89715 29.6552 4.95671 29.6552C4.51784 29.6552 4.14166 29.7806 3.89088 29.906L4.01627 30.4075C4.20436 30.2821 4.51784 30.2194 4.76862 30.2194C5.27019 30.2194 5.33289 30.5329 5.33289 30.721C4.26706 30.721 3.6401 31.0972 3.6401 31.7868C3.6401 32.2257 3.95358 32.6646 4.51784 32.6646C4.89402 32.6646 5.20749 32.4765 5.39558 32.2884L5.45828 32.6019H6.14793C6.08524 32.4138 6.08524 32.163 6.08524 31.9122V30.9091H6.14793ZM5.39558 31.5987C5.39558 31.6614 5.39558 31.7241 5.39558 31.7868C5.33289 31.9749 5.1448 32.163 4.83132 32.163C4.58054 32.163 4.39245 32.0376 4.39245 31.7241C4.39245 31.2853 4.89402 31.1599 5.39558 31.1599V31.5987ZM8.02881 30.9091C7.65264 30.7837 7.52724 30.6583 7.52724 30.5329C7.52724 30.3448 7.65264 30.2194 7.90342 30.2194C8.1542 30.2194 8.40499 30.2821 8.53038 30.4075L8.65577 29.906C8.46768 29.7806 8.2169 29.7179 7.90342 29.7179C7.21376 29.7179 6.83759 30.094 6.83759 30.5956C6.83759 30.9091 7.08837 31.2226 7.65264 31.4107C8.02881 31.5361 8.1542 31.6614 8.1542 31.8495C8.1542 32.0376 8.02881 32.163 7.71533 32.163C7.46455 32.163 7.15107 32.0376 6.96298 31.9749L6.83759 32.5392C7.02568 32.6646 7.33916 32.7273 7.71533 32.7273C8.46768 32.7273 8.90656 32.3511 8.90656 31.8495C8.78116 31.348 8.53038 31.0972 8.02881 30.9091ZM13.9849 29.3417C13.9849 29.906 13.9849 30.5329 14.0476 31.0345L14.1103 32.6646H14.8L14.5492 28.652H13.6087L13.0445 30.2821C12.9191 30.721 12.731 31.2226 12.6683 31.6614C12.5429 31.2226 12.4175 30.721 12.2921 30.2821L11.7906 28.652H10.8501L10.5993 32.6646H11.289L11.3517 31.0345C11.3517 30.4702 11.4144 29.8433 11.4144 29.3417C11.5398 29.8433 11.6652 30.4075 11.7906 30.9091L12.3548 32.6019H12.9191L13.4834 30.8464C13.6714 30.3448 13.7968 29.7806 13.9849 29.3417ZM15.9285 28.5266C15.6777 28.5266 15.4896 28.7147 15.4896 28.9028C15.4896 29.0909 15.6777 29.279 15.8658 29.279C16.1166 29.279 16.3047 29.0909 16.3047 28.9028C16.3674 28.7147 16.1793 28.5266 15.9285 28.5266ZM15.5523 32.6646H16.3047V29.7806H15.5523V32.6646ZM18.4363 32.7273C18.8125 32.7273 19.126 32.6646 19.2514 32.6019L19.126 32.0376C19.0006 32.1003 18.8125 32.163 18.5617 32.163C18.0602 32.163 17.684 31.8495 17.684 31.2226C17.684 30.721 17.9975 30.2821 18.5617 30.2821C18.8125 30.2821 19.0006 30.3448 19.126 30.4075L19.2514 29.8433C19.0633 29.7806 18.8125 29.7179 18.5617 29.7179C17.5586 29.7179 16.9316 30.4075 16.9316 31.2853C16.9316 32.1003 17.4959 32.7273 18.4363 32.7273ZM20.4426 30.2821L20.3799 29.7179H19.753C19.753 29.9687 19.753 30.2821 19.753 30.6583V32.6019H20.5053V31.0972C20.5053 31.0345 20.5053 30.9718 20.5053 30.9091C20.568 30.5956 20.8188 30.3448 21.1323 30.3448C21.195 30.3448 21.2577 30.3448 21.3203 30.3448V29.6552C21.2577 29.6552 21.195 29.6552 21.1323 29.6552C20.8815 29.6552 20.568 29.906 20.4426 30.2821ZM23.1385 29.6552C22.2608 29.6552 21.6338 30.2194 21.6338 31.1599C21.6338 32.1003 22.2608 32.6646 23.0758 32.6646C23.8282 32.6646 24.5805 32.163 24.5805 31.0972C24.5805 30.2821 24.0163 29.6552 23.1385 29.6552ZM23.1385 32.163C22.6997 32.163 22.4489 31.7241 22.4489 31.1599C22.4489 30.6583 22.637 30.1567 23.2012 30.1567C23.7028 30.1567 23.8909 30.6583 23.8909 31.1599C23.8282 31.7868 23.5147 32.163 23.1385 32.163ZM28.9066 31.0972C28.9066 30.4702 28.5931 29.7179 27.6526 29.7179C26.7122 29.7179 26.2106 30.4702 26.2106 31.2853C26.2106 32.163 26.7749 32.7273 27.7153 32.7273C28.1542 32.7273 28.4677 32.6646 28.7185 32.5392L28.5931 32.0376C28.3423 32.1003 28.1542 32.163 27.778 32.163C27.3392 32.163 26.9003 31.9122 26.9003 31.4107H28.8439C28.8439 31.348 28.9066 31.2226 28.9066 31.0972ZM26.9003 30.9091C26.9003 30.5956 27.1511 30.2194 27.5899 30.2194C28.0915 30.2194 28.2169 30.6583 28.2169 30.9091H26.9003ZM33.0445 28.9028C32.7937 28.7147 32.4175 28.5893 31.8533 28.5893C31.3517 28.5893 30.9755 28.652 30.7247 28.652V32.6019H31.4771V31.0972C31.6025 31.0972 31.7279 31.0972 31.8533 31.0972C32.3548 31.0972 32.7937 30.9718 33.1072 30.6583C33.2953 30.4702 33.4207 30.1567 33.4207 29.7806C33.4207 29.4671 33.2326 29.1536 33.0445 28.9028ZM31.7906 30.5956C31.6652 30.5956 31.5398 30.5956 31.4144 30.5329V29.2163C31.4771 29.2163 31.6652 29.1536 31.8533 29.1536C32.3548 29.1536 32.6683 29.4044 32.6683 29.8433C32.6683 30.2821 32.3548 30.5956 31.7906 30.5956ZM36.3674 31.0972C36.3674 30.4702 36.0539 29.7179 35.1134 29.7179C34.173 29.7179 33.6714 30.4702 33.6714 31.2853C33.6714 32.163 34.2357 32.7273 35.1761 32.7273C35.615 32.7273 35.9285 32.6646 36.1793 32.5392L36.0539 32.0376C35.8031 32.1003 35.615 32.163 35.2388 32.163C34.8 32.163 34.3611 31.9122 34.3611 31.4107H36.3047C36.3674 31.348 36.3674 31.2226 36.3674 31.0972ZM34.3611 30.9091C34.3611 30.5956 34.5492 30.2194 35.0508 30.2194C35.5523 30.2194 35.6777 30.6583 35.6777 30.9091H34.3611ZM38.8752 32.2257V33.7931H39.6276V30.5329C39.6276 30.2194 39.6276 29.9687 39.6276 29.7179H38.9379V30.094C38.8125 29.8433 38.499 29.6552 38.1229 29.6552C37.4959 29.6552 36.8062 30.1567 36.8062 31.2226C36.8062 32.1003 37.3705 32.6646 37.9975 32.6646C38.3736 32.7273 38.6871 32.5392 38.8752 32.2257ZM38.1856 32.1003C37.7467 32.1003 37.4959 31.7241 37.4959 31.1599C37.4959 30.5956 37.7467 30.2194 38.2482 30.2194C38.5617 30.2194 38.8125 30.4702 38.8752 30.721C38.8752 30.7837 38.8752 30.8464 38.8752 30.9091V31.4107C38.8752 31.4734 38.8752 31.5987 38.8125 31.6614C38.7498 31.9122 38.499 32.1003 38.1856 32.1003ZM42.3235 32.2257L42.3862 32.6646H43.0131C43.0131 32.4138 43.0131 32.163 43.0131 31.7868V29.7806H42.2608V31.5361C42.2608 31.5987 42.2608 31.7241 42.1981 31.7868C42.1354 31.9749 41.9473 32.163 41.6338 32.163C41.2577 32.163 41.0696 31.8495 41.0696 31.348V29.7806H40.3799V31.4734C40.3799 32.4138 40.8815 32.7273 41.383 32.7273C41.8846 32.7273 42.1981 32.4138 42.3235 32.2257ZM43.5774 31.2226C43.5774 32.1003 44.1417 32.6646 45.0821 32.6646C45.521 32.6646 45.8345 32.6019 46.0852 32.4765L45.9598 31.9749C45.7091 32.0376 45.521 32.1003 45.1448 32.1003C44.6432 32.1003 44.2671 31.8495 44.2671 31.348H46.2106C46.2106 31.2853 46.2106 31.1599 46.2106 31.0345C46.2106 30.4075 45.8972 29.6552 44.9567 29.6552C44.079 29.6552 43.5774 30.4075 43.5774 31.2226ZM45.5837 30.9091H44.3298C44.3298 30.5956 44.5178 30.2194 45.0194 30.2194C45.4583 30.1567 45.5837 30.5956 45.5837 30.9091ZM48.7185 31.0345V32.6646H49.4708V30.9718C49.4708 30.0314 48.9693 29.7179 48.4677 29.7179C47.9661 29.7179 47.6526 29.9687 47.5272 30.2194L47.4646 29.7806H46.8376C46.8376 30.0313 46.8376 30.2821 46.8376 30.6583V32.6646H47.5899V30.9718C47.5899 30.9091 47.5899 30.7837 47.6526 30.721C47.7153 30.5329 47.9034 30.2821 48.2169 30.2821C48.5931 30.2821 48.7185 30.5956 48.7185 31.0345ZM51.7906 32.2884L51.8533 32.6019H52.5429C52.4802 32.4138 52.4802 32.163 52.4802 31.9122V30.8464C52.4802 30.2194 52.2294 29.5925 51.289 29.5925C50.8501 29.5925 50.4739 29.7179 50.2232 29.8433L50.3486 30.3448C50.5366 30.2194 50.8501 30.1567 51.1009 30.1567C51.6025 30.1567 51.6652 30.4702 51.6652 30.6583V30.721C50.5993 30.721 49.9724 31.0972 49.9724 31.7868C49.9724 32.2257 50.2859 32.6646 50.8501 32.6646C51.289 32.7273 51.6025 32.5392 51.7906 32.2884ZM51.1636 32.163C50.9128 32.163 50.7247 32.0376 50.7247 31.7241C50.7247 31.2853 51.2263 31.1599 51.7279 31.1599V31.5361C51.7279 31.5987 51.7279 31.6614 51.7279 31.7241C51.6652 31.9749 51.4771 32.163 51.1636 32.163ZM54.2357 30.2194C54.4865 30.2194 54.7373 30.2821 54.8627 30.4075L54.9881 29.906C54.8 29.7806 54.5492 29.7179 54.2357 29.7179C53.5461 29.7179 53.1699 30.094 53.1699 30.5956C53.1699 30.9091 53.4207 31.2226 53.9849 31.4107C54.3611 31.5361 54.4865 31.6614 54.4865 31.8495C54.4865 32.0376 54.3611 32.163 54.0476 32.163C53.7968 32.163 53.4834 32.0376 53.2953 31.9749L53.1699 32.5392C53.358 32.6646 53.6714 32.7273 54.0476 32.7273C54.8 32.7273 55.2388 32.3511 55.2388 31.8495C55.2388 31.4107 54.9881 31.1599 54.4865 30.9718C54.1103 30.8464 53.9849 30.721 53.9849 30.5956C53.8595 30.3448 53.9849 30.2194 54.2357 30.2194ZM59.3141 29.2163V28.5893H56.9943V32.6019H59.4395V31.9749H57.7467V30.7837H59.2514V30.2194H57.7467V29.2163H59.3141ZM62.5116 32.6646V30.9091C62.5116 30.8464 62.5116 30.721 62.5743 30.6583C62.637 30.4702 62.825 30.2821 63.0758 30.2821C63.452 30.2821 63.5774 30.5956 63.5774 31.0345V32.6019H64.2671V30.9091C64.2671 29.9687 63.7655 29.6552 63.3266 29.6552C63.0758 29.6552 62.8877 29.7179 62.7624 29.8433C62.637 29.906 62.5116 30.0313 62.3862 30.2194C62.2608 29.906 61.9473 29.6552 61.5711 29.6552C61.0696 29.6552 60.8188 29.906 60.6934 30.1567L60.6307 29.7179H60.0037C60.0037 29.9687 60.0037 30.2194 60.0037 30.5956V32.6019H60.6934V30.9091C60.6934 30.8464 60.6934 30.721 60.7561 30.6583C60.8188 30.4702 61.0069 30.2194 61.2577 30.2194C61.5711 30.2194 61.7592 30.5329 61.7592 30.9091V32.6646H62.5116ZM65.7091 30.2194L65.6464 29.7806H65.0194C65.0194 30.0313 65.0194 30.3448 65.0194 30.721V33.8558H65.7718V32.3511C65.8971 32.6019 66.2106 32.7273 66.5868 32.7273C67.2765 32.7273 67.9034 32.2257 67.9034 31.1599C67.9034 30.2821 67.3392 29.6552 66.7122 29.6552C66.2733 29.6552 65.9598 29.8433 65.7091 30.2194ZM65.7718 30.9718C65.7718 30.9091 65.7718 30.8464 65.7718 30.7837C65.8345 30.4702 66.1479 30.2194 66.4614 30.2194C66.9003 30.2194 67.1511 30.6583 67.1511 31.1599C67.1511 31.7241 66.9003 32.1003 66.3987 32.1003C66.0852 32.1003 65.8345 31.9122 65.7718 31.5987C65.7718 31.5361 65.7718 31.4734 65.7718 31.4107V30.9718ZM68.5304 29.7179C68.5304 29.9687 68.5304 30.2821 68.5304 30.6583V32.6019H69.2827V31.0972C69.2827 31.0345 69.2827 30.9718 69.2827 30.9091C69.3454 30.5956 69.5962 30.3448 69.9097 30.3448C69.9724 30.3448 70.0351 30.3448 70.0978 30.3448V29.6552C70.0351 29.6552 69.9724 29.6552 69.9097 29.6552C69.5962 29.6552 69.2827 29.8433 69.0946 30.2821V29.7179H68.5304ZM71.7906 29.6552C70.8501 29.6552 70.3486 30.4075 70.3486 31.2226C70.3486 32.1003 70.9128 32.6646 71.8533 32.6646C72.2921 32.6646 72.6056 32.6019 72.8564 32.4765L72.731 31.9749C72.4802 32.0376 72.2921 32.1003 71.916 32.1003C71.4144 32.1003 71.0382 31.8495 71.0382 31.348H72.9818C72.9818 31.2853 72.9818 31.1599 72.9818 31.0345C73.0445 30.4702 72.731 29.6552 71.7906 29.6552ZM71.1009 30.9091C71.1009 30.5956 71.3517 30.2194 71.7906 30.2194C72.2921 30.2194 72.4175 30.6583 72.4175 30.9091H71.1009ZM74.7373 30.9091C74.3611 30.7837 74.2357 30.6583 74.2357 30.5329C74.2357 30.3448 74.3611 30.2194 74.6119 30.2194C74.8627 30.2194 75.1135 30.2821 75.2388 30.4075L75.3642 29.906C75.1762 29.7806 74.9254 29.7179 74.6119 29.7179C73.9222 29.7179 73.5461 30.094 73.5461 30.5956C73.5461 30.9091 73.7968 31.2226 74.3611 31.4107C74.7373 31.5361 74.8627 31.6614 74.8627 31.8495C74.8627 32.0376 74.7373 32.163 74.4238 32.163C74.173 32.163 73.8595 32.0376 73.6714 31.9749L73.5461 32.5392C73.7341 32.6646 74.0476 32.7273 74.4238 32.7273C75.1761 32.7273 75.615 32.3511 75.615 31.8495C75.5523 31.348 75.3015 31.0972 74.7373 30.9091ZM78.3736 30.9091C78.3736 30.2821 78.1229 29.6552 77.1824 29.6552C76.7435 29.6552 76.3674 29.7806 76.1166 29.906L76.242 30.4075C76.4301 30.2821 76.7435 30.2194 76.9943 30.2194C77.4959 30.2194 77.5586 30.5329 77.5586 30.721C76.4928 30.721 75.8658 31.0972 75.8658 31.7868C75.8658 32.2257 76.1793 32.6646 76.7435 32.6646C77.1197 32.6646 77.4332 32.4765 77.6213 32.2884L77.684 32.6019H78.3736C78.3109 32.4138 78.3109 32.163 78.3109 31.9122V30.9091H78.3736ZM77.684 31.5987C77.684 31.6614 77.684 31.7241 77.684 31.7868C77.6213 31.9749 77.4332 32.163 77.1197 32.163C76.8689 32.163 76.6808 32.0376 76.6808 31.7241C76.6808 31.2853 77.1824 31.1599 77.684 31.1599V31.5987ZM80.2545 30.9091C79.8783 30.7837 79.753 30.6583 79.753 30.5329C79.753 30.3448 79.8783 30.2194 80.1291 30.2194C80.3799 30.2194 80.6307 30.2821 80.7561 30.4075L80.8815 29.906C80.6934 29.7806 80.4426 29.7179 80.1291 29.7179C79.4395 29.7179 79.0633 30.094 79.0633 30.5956C79.0633 30.9091 79.3141 31.2226 79.8783 31.4107C80.2545 31.5361 80.3799 31.6614 80.3799 31.8495C80.3799 32.0376 80.2545 32.163 79.941 32.163C79.6903 32.163 79.3768 32.0376 79.1887 31.9749L79.0633 32.5392C79.2514 32.6646 79.5649 32.7273 79.941 32.7273C80.6934 32.7273 81.1323 32.3511 81.1323 31.8495C81.0069 31.348 80.7561 31.0972 80.2545 30.9091ZM10.5993 35.8621C9.65891 35.8621 9.15734 36.6144 9.15734 37.4295C9.15734 38.3072 9.7216 38.8715 10.662 38.8715C11.1009 38.8715 11.4144 38.8088 11.6652 38.6834L11.5398 38.1818C11.289 38.2445 11.1009 38.3072 10.7247 38.3072C10.2859 38.3072 9.84699 38.0564 9.84699 37.5549H11.7906C11.7906 37.4922 11.7906 37.3668 11.7906 37.2414C11.8533 36.6144 11.5398 35.8621 10.5993 35.8621ZM9.90969 37.0533C9.97239 36.7398 10.1605 36.3636 10.5993 36.3636C11.1009 36.3636 11.2263 36.8025 11.2263 37.0533H9.90969ZM16.3674 34.6082H15.615V36.2382C15.4896 36.0502 15.1761 35.8621 14.8 35.8621C14.1103 35.8621 13.4834 36.4263 13.4834 37.4295C13.4834 38.3072 14.0476 38.9342 14.7373 38.9342C15.1761 38.9342 15.4896 38.7461 15.6777 38.4326L15.7404 38.8715H16.3674C16.3674 38.6834 16.3674 38.3699 16.3674 38.0564V34.6082ZM15.615 37.5549C15.615 37.6176 15.615 37.6803 15.615 37.7429C15.5523 38.0564 15.3015 38.2445 14.9881 38.2445C14.5492 38.2445 14.2357 37.8683 14.2357 37.3041C14.2357 36.8025 14.4865 36.3636 14.9881 36.3636C15.3015 36.3636 15.5523 36.6144 15.615 36.8652C15.615 36.9279 15.615 36.9906 15.615 37.0533V37.5549ZM18.4363 35.8621C17.5586 35.8621 16.9316 36.4263 16.9316 37.3668C16.9316 38.3072 17.5586 38.8715 18.3736 38.8715C19.126 38.8715 19.8783 38.3699 19.8783 37.3041C19.8783 36.4263 19.3141 35.8621 18.4363 35.8621ZM18.4363 38.3072C17.9975 38.3072 17.7467 37.8683 17.7467 37.3041C17.7467 36.8025 17.9348 36.3009 18.499 36.3009C19.0006 36.3009 19.1887 36.8025 19.1887 37.2414C19.126 37.931 18.8125 38.3072 18.4363 38.3072ZM22.4489 36.9906H23.9536V36.4263H22.4489V35.4232H24.079V34.7962H21.7592V38.8088H24.2044V38.1818H22.5116V36.9906H22.4489ZM28.0915 35.8621C27.8407 35.8621 27.6526 35.9248 27.5272 36.0502C27.4019 36.1129 27.2765 36.2382 27.1511 36.4263C27.0257 36.1129 26.7122 35.8621 26.336 35.8621C25.8345 35.8621 25.5837 36.1129 25.4583 36.3636L25.3956 35.9248H24.7686C24.7686 36.1755 24.7686 36.4263 24.7686 36.8025V38.8088H25.4583V37.116C25.4583 37.0533 25.4583 36.9279 25.521 36.8652C25.5837 36.6771 25.7718 36.4263 26.0225 36.4263C26.336 36.4263 26.5241 36.7398 26.5241 37.116V38.8088H27.2138V37.0533C27.2138 36.9906 27.2138 36.8652 27.2765 36.8025C27.3392 36.6144 27.5272 36.4263 27.778 36.4263C28.1542 36.4263 28.2796 36.7398 28.2796 37.1787V38.7461H28.9692V37.0533C29.0319 36.1755 28.5304 35.8621 28.0915 35.8621ZM31.4771 35.8621C31.0382 35.8621 30.7247 36.0502 30.474 36.3636L30.4113 35.9248H29.7843C29.7843 36.1755 29.7843 36.489 29.7843 36.8652V40H30.5366V38.4953C30.662 38.7461 30.9755 38.8715 31.3517 38.8715C31.9787 38.8715 32.6683 38.3699 32.6683 37.3041C32.6683 36.4263 32.104 35.8621 31.4771 35.8621ZM31.2263 38.3072C30.9128 38.3072 30.662 38.1191 30.5993 37.8056C30.5993 37.7429 30.5993 37.6803 30.5993 37.6176V37.1787C30.5993 37.116 30.5993 37.0533 30.5993 36.9906C30.662 36.6771 30.9755 36.4263 31.289 36.4263C31.7279 36.4263 31.9787 36.8652 31.9787 37.3668C31.916 37.931 31.6652 38.3072 31.2263 38.3072ZM33.9222 36.4263L33.8595 35.8621H33.2326C33.2326 36.1129 33.2326 36.4263 33.2326 36.8025V38.7461H33.9849V37.2414C33.9849 37.1787 33.9849 37.116 33.9849 37.0533C34.0476 36.7398 34.2984 36.489 34.6119 36.489C34.6746 36.489 34.7373 36.489 34.8627 36.489V35.7994C34.8 35.7994 34.7373 35.7994 34.6746 35.7994C34.4238 35.8621 34.0476 36.0502 33.9222 36.4263ZM36.5555 35.8621C35.615 35.8621 35.1134 36.6144 35.1134 37.4295C35.1134 38.3072 35.6777 38.8715 36.6182 38.8715C37.057 38.8715 37.3705 38.8088 37.6213 38.6834L37.4959 38.1818C37.2451 38.2445 37.057 38.3072 36.6809 38.3072C36.242 38.3072 35.8031 38.0564 35.8031 37.5549H37.7467C37.7467 37.4922 37.7467 37.3668 37.7467 37.2414C37.8094 36.6144 37.4959 35.8621 36.5555 35.8621ZM35.8658 37.0533C35.8658 36.7398 36.0539 36.3636 36.5555 36.3636C37.057 36.3636 37.1824 36.8025 37.1824 37.0533H35.8658ZM39.6276 35.8621C38.6871 35.8621 38.1856 36.6144 38.1856 37.4295C38.1856 38.3072 38.7498 38.8715 39.6903 38.8715C40.1291 38.8715 40.4426 38.8088 40.6934 38.6834L40.568 38.1818C40.3172 38.2445 40.1291 38.3072 39.7529 38.3072C39.3141 38.3072 38.8752 38.0564 38.8752 37.5549H40.8188C40.8188 37.4922 40.8188 37.3668 40.8188 37.2414C40.8815 36.6144 40.568 35.8621 39.6276 35.8621ZM38.9379 37.0533C38.9379 36.7398 39.1887 36.3636 39.6276 36.3636C40.1291 36.3636 40.2545 36.8025 40.2545 37.0533H38.9379ZM43.0758 35.8621C42.5743 35.8621 42.2608 36.1129 42.1354 36.3636L42.0727 35.9248H41.4457C41.4457 36.1755 41.4457 36.4263 41.4457 36.8025V38.8088H42.1981V37.116C42.1981 37.0533 42.1981 36.9279 42.2608 36.8652C42.3235 36.6771 42.5116 36.4263 42.8251 36.4263C43.2012 36.4263 43.3893 36.7398 43.3893 37.1787V38.8088H44.1417V37.116C44.079 36.1755 43.5774 35.8621 43.0758 35.8621ZM47.5272 34.6082H46.7749V36.2382C46.6495 36.0502 46.336 35.8621 45.9598 35.8621C45.2702 35.8621 44.6432 36.4263 44.6432 37.4295C44.6432 38.3072 45.2075 38.9342 45.8972 38.9342C46.336 38.9342 46.6495 38.7461 46.8376 38.4326L46.9003 38.8715H47.5272C47.5272 38.6834 47.5272 38.3699 47.5272 38.0564V34.6082ZM46.7749 37.5549C46.7749 37.6176 46.7749 37.6803 46.7749 37.7429C46.7122 38.0564 46.4614 38.2445 46.1479 38.2445C45.7091 38.2445 45.3956 37.8683 45.3956 37.3041C45.3956 36.8025 45.6464 36.3636 46.1479 36.3636C46.4614 36.3636 46.7122 36.6144 46.7749 36.8652C46.7749 36.9279 46.7749 36.9906 46.7749 37.0533V37.5549ZM49.5335 35.8621C48.5931 35.8621 48.0915 36.6144 48.0915 37.4295C48.0915 38.3072 48.6558 38.8715 49.5962 38.8715C50.0351 38.8715 50.3486 38.8088 50.5993 38.6834L50.4739 38.1818C50.2232 38.2445 50.0351 38.3072 49.6589 38.3072C49.22 38.3072 48.7812 38.0564 48.7812 37.5549H50.7247C50.7247 37.4922 50.7247 37.3668 50.7247 37.2414C50.7874 36.6144 50.474 35.8621 49.5335 35.8621ZM48.8439 37.0533C48.8439 36.7398 49.0946 36.3636 49.5335 36.3636C50.0351 36.3636 50.1605 36.8025 50.1605 37.0533H48.8439ZM54.0476 34.6082H53.2953V36.2382C53.1699 36.0502 52.8564 35.8621 52.4802 35.8621C51.7906 35.8621 51.1636 36.4263 51.1636 37.4295C51.1636 38.3072 51.7279 38.9342 52.4175 38.9342C52.8564 38.9342 53.1699 38.7461 53.358 38.4326L53.4207 38.8715H54.0476C54.0476 38.6834 54.0476 38.3699 54.0476 38.0564V34.6082ZM53.2953 37.5549C53.2953 37.6176 53.2953 37.6803 53.2953 37.7429C53.2326 38.0564 52.9818 38.2445 52.6683 38.2445C52.2294 38.2445 51.916 37.8683 51.916 37.3041C51.916 36.8025 52.1667 36.3636 52.6683 36.3636C52.9818 36.3636 53.2326 36.6144 53.2953 36.8652C53.2953 36.9279 53.2953 36.9906 53.2953 37.0533V37.5549ZM56.1166 35.8621C55.2388 35.8621 54.6119 36.4263 54.6119 37.3668C54.6119 38.3072 55.2388 38.8715 56.0539 38.8715C56.8062 38.8715 57.5586 38.3699 57.5586 37.3041C57.5586 36.4263 56.9943 35.8621 56.1166 35.8621ZM56.1166 38.3072C55.6777 38.3072 55.4269 37.8683 55.4269 37.3041C55.4269 36.8025 55.615 36.3009 56.1793 36.3009C56.6809 36.3009 56.8689 36.8025 56.8689 37.2414C56.8062 37.931 56.5555 38.3072 56.1166 38.3072ZM58.8125 36.4263L58.7498 35.8621H58.1229C58.1229 36.1129 58.1229 36.4263 58.1229 36.8025V38.7461H58.8752V37.2414C58.8752 37.1787 58.8752 37.116 58.8752 37.0533C58.9379 36.7398 59.1887 36.489 59.5022 36.489C59.5649 36.489 59.6276 36.489 59.753 36.489V35.7994C59.6903 35.7994 59.6276 35.7994 59.5649 35.7994C59.3141 35.8621 59.0006 36.0502 58.8125 36.4263ZM60.6934 34.6708C60.4426 34.6708 60.2545 34.8589 60.2545 35.047C60.2545 35.2351 60.4426 35.4232 60.6307 35.4232C60.8815 35.4232 61.0696 35.2351 61.0696 35.047C61.0696 34.8589 60.9442 34.6708 60.6934 34.6708ZM60.3172 38.8088H61.0696V35.9248H60.3172V38.8088ZM62.9504 37.0533C62.5743 36.9279 62.4489 36.8025 62.4489 36.6771C62.4489 36.489 62.5743 36.3636 62.8251 36.3636C63.0758 36.3636 63.3266 36.4263 63.452 36.5517L63.5774 36.0502C63.3893 35.9248 63.1385 35.8621 62.8251 35.8621C62.1354 35.8621 61.7592 36.2382 61.7592 36.7398C61.7592 37.116 62.01 37.3668 62.5743 37.5549C62.9504 37.6803 63.0758 37.8056 63.0758 37.9937C63.0758 38.1818 62.9504 38.3072 62.637 38.3072C62.3862 38.3072 62.0727 38.1818 61.8846 38.1191L61.7592 38.6834C61.9473 38.8088 62.2608 38.8715 62.637 38.8715C63.3893 38.8715 63.8282 38.4953 63.8282 37.9937C63.7028 37.4922 63.452 37.2414 62.9504 37.0533ZM67.5899 35.8621C67.3392 35.8621 67.1511 35.9248 67.0257 36.0502C66.9003 36.1129 66.7749 36.2382 66.6495 36.4263C66.5241 36.1129 66.2106 35.8621 65.8345 35.8621C65.3329 35.8621 65.0821 36.1129 64.9567 36.3636L64.894 35.9248H64.2671C64.2671 36.1755 64.2671 36.4263 64.2671 36.8025V38.8088H64.9567V37.116C64.9567 37.0533 64.9567 36.9279 65.0194 36.8652C65.0821 36.6771 65.2702 36.4263 65.521 36.4263C65.8345 36.4263 66.0225 36.7398 66.0225 37.116V38.8088H66.7122V37.0533C66.7122 36.9906 66.7122 36.8652 66.7749 36.8025C66.8376 36.6144 67.0257 36.4263 67.2765 36.4263C67.6526 36.4263 67.778 36.7398 67.778 37.1787V38.7461H68.4677V37.0533C68.5304 36.1755 68.0915 35.8621 67.5899 35.8621ZM70.662 35.8621C69.7843 35.8621 69.1573 36.4263 69.1573 37.3668C69.1573 38.3072 69.7843 38.8715 70.5993 38.8715C71.3517 38.8715 72.104 38.3699 72.104 37.3041C72.104 36.4263 71.4771 35.8621 70.662 35.8621ZM70.5993 38.3072C70.1605 38.3072 69.9097 37.8683 69.9097 37.3041C69.9097 36.8025 70.0978 36.3009 70.662 36.3009C71.1636 36.3009 71.3517 36.8025 71.3517 37.2414C71.3517 37.931 71.0382 38.3072 70.5993 38.3072Z" fill="white"/>
<path d="M35.1134 6.0815C34.5492 5.64263 33.7968 5.26646 32.9818 5.07837C32.1667 4.89028 30.662 4.76489 28.5304 4.76489H25.709L23.8282 15.3605L17.2451 0L2.82503 18.4326H7.02566L15.9912 6.95925L20.9442 18.4326H26.7749C28.5304 18.4326 29.847 18.3072 30.7247 18.1191C31.6025 17.931 32.4175 17.6176 33.1699 17.116C34.1103 16.489 34.9254 15.7367 35.5523 14.7962C36.1793 13.8558 36.5554 12.79 36.8062 11.5987C36.9943 10.4075 36.9943 9.34169 36.6808 8.40125C36.43 7.46081 35.8658 6.70846 35.1134 6.0815ZM33.0445 11.5987C32.7937 12.9154 32.2921 13.8558 31.5398 14.4201C30.7874 15.047 29.6589 15.2978 28.2169 15.2978H27.5899L28.9065 7.77429H29.5335C30.9755 7.77429 31.9786 8.08777 32.5429 8.71473C33.1072 9.34169 33.2326 10.3448 33.0445 11.5987ZM42.4489 7.77429H47.1511L47.6526 4.76489H39.3768L36.9943 18.3699H45.3329L45.8971 15.2978H41.1949L41.6338 12.9781H46.0852L46.5868 10.0313H42.1354L42.4489 7.77429ZM57.3705 11.5987C57.9975 10.9091 58.4363 10.094 58.6244 9.02821C58.7498 8.33856 58.7498 7.7116 58.5617 7.14734C58.3736 6.58307 58.1228 6.0815 57.684 5.70533C57.3078 5.39185 56.8062 5.14107 56.242 5.01567C55.6777 4.89028 54.6119 4.82759 53.1072 4.82759H49.22L46.8376 18.4326H50.2859L51.2263 13.1034L53.4207 18.4326H57.6213L54.8627 12.9781C55.8658 12.7273 56.6808 12.2884 57.3705 11.5987ZM54.0476 10.8464C53.6087 11.0972 53.0445 11.2853 52.2294 11.2853H51.5398L52.1667 7.7116H52.9191C53.7341 7.7116 54.2984 7.83699 54.5492 8.15047C54.8627 8.46395 54.9254 8.90282 54.8 9.59248C54.7373 10.1567 54.4865 10.5329 54.0476 10.8464ZM67.0884 13.0408L67.5899 10.094H63.1385L63.5774 7.7116H68.2796L68.7812 4.70219H60.4426L58.0601 18.3072H66.3987L66.963 15.2351H62.2608L62.6996 12.9154H67.0884V13.0408ZM77.1197 11.2226C76.7435 10.721 75.8031 10.2821 74.3611 9.90596L74.173 9.84326C73.4833 9.65517 73.0445 9.46708 72.8564 9.279C72.6683 9.09091 72.5429 8.77743 72.6056 8.46395C72.6683 8.15047 72.8564 7.83699 73.1699 7.6489C73.4833 7.46081 73.8595 7.33542 74.2984 7.33542C74.7373 7.33542 75.1761 7.39812 75.5523 7.58621C75.9912 7.7743 76.3674 8.02508 76.6808 8.40125L78.3109 5.70533C77.8094 5.26646 77.1824 5.01567 76.5554 4.76489C75.9285 4.5768 75.2388 4.45141 74.4865 4.45141C73.1072 4.45141 71.9159 4.89028 70.9128 5.70533C69.9097 6.52038 69.2827 7.58621 69.0319 8.90282C68.8438 9.90596 68.9692 10.721 69.4708 11.2853C69.9097 11.8495 70.7874 12.3511 72.0413 12.6646C72.9818 12.9154 73.546 13.1661 73.7968 13.4169C74.0476 13.6677 74.1103 13.9812 74.0476 14.4828C73.9849 14.9216 73.7341 15.2351 73.4206 15.4859C73.0445 15.7367 72.6056 15.8621 72.104 15.8621C71.5398 15.8621 71.0382 15.7367 70.5993 15.4232C70.0978 15.1097 69.6589 14.6708 69.22 14.0439L67.0884 16.8025C67.7153 17.4922 68.3423 17.9937 69.0946 18.3072C69.7843 18.6207 70.662 18.8088 71.6025 18.8088C73.1699 18.8088 74.5492 18.3699 75.615 17.4922C76.7435 16.6144 77.3705 15.4232 77.6213 13.9812C77.7467 13.4169 77.7467 12.9154 77.6213 12.4138C77.5586 11.9749 77.4332 11.536 77.1197 11.2226Z" fill="white"/>
<path d="M14.9881 12.6645L17.4959 18.4326H10.4739L14.9881 12.6645Z" fill="white"/>
</g>
</svg>
