<svg width="116" height="33" viewBox="0 0 116 33" fill="none" xmlns="http://www.w3.org/2000/svg">
<g id="Frame" clip-path="url(#clip0_143_158)">
<g id="Group">
<path id="Vector" d="M45.7242 12.9558H35.744C35.5099 12.9558 35.3595 13.0895 35.3595 13.3403V32.1638C35.3595 32.3979 35.4932 32.5483 35.744 32.5483H37.1482C37.3823 32.5483 37.5327 32.4146 37.5327 32.1638V23.5879H43.0494C43.2834 23.5879 43.4339 23.4542 43.4339 23.2034V22.0499C43.4339 21.8159 43.3002 21.6654 43.0494 21.6654H37.5327V14.8615H45.7242C45.9582 14.8615 46.1087 14.7278 46.1087 14.477V13.3236C46.1087 13.0895 45.9749 12.9558 45.7242 12.9558Z" fill="white"/>
<path id="Vector_2" d="M48.75 12.9558H47.3457C47.1117 12.9558 46.9612 13.0895 46.9612 13.3403V32.1638C46.9612 32.3979 47.095 32.5483 47.3457 32.5483H48.75C48.984 32.5483 49.1345 32.4146 49.1345 32.1638V13.3236C49.1345 13.0895 49.0007 12.9558 48.75 12.9558Z" fill="white"/>
<path id="Vector_3" d="M60.3183 13.6077C59.449 13.1396 58.1116 12.8889 56.9748 12.8889C55.8548 12.8889 54.6679 13.1229 53.8153 13.6077C52.946 14.0758 52.2773 14.7612 51.7925 15.6305C51.3244 16.4998 51.0737 17.4861 51.0737 18.6061V26.9146C51.0737 28.0179 51.3077 29.021 51.7925 29.8735C52.2606 30.7261 52.946 31.3948 53.8153 31.8796C54.6679 32.3477 55.8548 32.5984 56.9748 32.5984C58.0949 32.5984 59.449 32.3644 60.3183 31.8796C61.1876 31.4115 61.8563 30.7261 62.3411 29.8735C62.8259 29.021 63.0599 28.0346 63.0599 26.9146V18.6061C63.0599 17.5028 62.8091 16.4998 62.3411 15.6305C61.8563 14.7612 61.1709 14.0925 60.3183 13.6077ZM60.9201 18.5393V26.9815C60.9201 28.0848 60.5858 28.9875 59.9338 29.6562C59.2818 30.3249 58.0615 30.6592 56.9748 30.6592C55.9049 30.6592 54.8685 30.3249 54.2165 29.6562C53.5645 28.9875 53.2302 28.0848 53.2302 26.9815V18.5393C53.2302 17.4192 53.5645 16.4998 54.2165 15.8311C54.8685 15.1457 55.9049 14.8113 56.9748 14.8113C58.0615 14.8113 59.2818 15.1624 59.9338 15.8311C60.5858 16.5165 60.9201 17.4192 60.9201 18.5393Z" fill="white"/>
<path id="Vector_4" d="M70.6495 12.9056C68.9611 12.9056 67.4231 13.4071 66.3866 14.3934C65.3501 15.3798 64.8319 16.7338 64.8319 18.3721V27.0651C64.8319 28.7201 65.3501 30.0575 66.3866 31.0605C67.4231 32.0635 69.3121 32.565 70.9838 32.565C72.689 32.565 74.0765 32.0635 75.0963 31.0772C76.1327 30.0909 76.651 28.7535 76.651 27.1319V26.9481C76.651 26.714 76.5172 26.5636 76.2832 26.5636L74.8789 26.48C74.6449 26.48 74.4945 26.6137 74.4945 26.831V27.2155C74.4945 28.2353 74.1601 29.0879 73.5249 29.7231C72.8729 30.3584 72.0203 30.676 70.9838 30.676C69.9307 30.676 68.5766 30.3584 67.9413 29.7398C67.3061 29.1213 66.9884 28.2687 66.9884 27.2155V18.2885C66.9884 17.2354 67.3061 16.3995 67.9413 15.7643C68.5766 15.1457 69.5963 14.8281 70.6495 14.8281C71.7027 14.8281 72.8896 15.1457 73.5416 15.781C74.1935 16.4162 74.5112 17.2521 74.5112 18.2885V18.673C74.5112 18.8904 74.6449 19.0241 74.8957 19.0241L76.2832 18.974C76.5172 18.974 76.6677 18.8402 76.6677 18.5895V18.3387C76.6677 16.7171 76.1495 15.3798 75.113 14.3934C74.0765 13.4071 72.3379 12.9056 70.6495 12.9056Z" fill="white"/>
<path id="Vector_5" d="M86.9989 23.5545C88.0521 23.2536 88.9047 22.6518 89.5065 21.7658C90.1083 20.8798 90.4259 19.6093 90.4259 18.3555C90.4259 17.3023 90.2086 16.3494 89.7907 15.547C89.3728 14.7278 88.7709 14.0926 88.0187 13.6412C87.2664 13.1899 86.3971 12.9725 85.4275 12.9725H78.9245C78.6905 12.9725 78.54 13.1063 78.54 13.357V32.1806C78.54 32.4146 78.6737 32.5651 78.9245 32.5651H80.3288C80.5628 32.5651 80.7132 32.4314 80.7132 32.1806V23.7886H84.926L84.9427 23.8053L88.3363 32.2809C88.4032 32.4648 88.5369 32.5651 88.7375 32.5651H90.1919C90.4092 32.5651 90.543 32.4481 90.543 32.2475L90.5095 32.097L86.9989 23.5545ZM88.2694 18.3388C88.2694 19.3752 87.9852 20.3783 87.4168 21.0135C86.8485 21.6488 86.1129 21.9664 85.1935 21.9664H80.7132V14.8616H85.1767C86.0962 14.8616 86.8485 15.1792 87.4001 15.8145C87.9852 16.4497 88.2694 17.3023 88.2694 18.3388Z" fill="white"/>
<path id="Vector_6" d="M103.75 12.9558H102.345C102.111 12.9558 101.961 13.0895 101.961 13.3403V26.8812C101.961 28.018 101.626 28.9374 100.974 29.6395C100.323 30.3249 99.2025 30.676 98.1326 30.676C97.0627 30.676 95.9426 30.3249 95.2906 29.6395C94.6387 28.9541 94.3043 28.018 94.3043 26.8812V13.3403C94.3043 13.1062 94.1706 12.9558 93.9198 12.9558H92.5156C92.2816 12.9558 92.1311 13.0895 92.1311 13.3403V26.7809C92.1311 27.9344 92.3651 28.9541 92.8499 29.8234C93.318 30.6927 94.0034 31.3781 94.856 31.8629C95.7253 32.3477 96.9791 32.5818 98.1159 32.5818C99.2359 32.5818 100.506 32.331 101.376 31.8629C102.245 31.3781 102.914 30.6927 103.382 29.8234C103.85 28.9541 104.101 27.9344 104.101 26.7809V13.3236C104.134 13.0895 104 12.9558 103.75 12.9558Z" fill="white"/>
<path id="Vector_7" d="M115.836 14.6107V13.3235C115.836 13.0894 115.702 12.939 115.452 12.939H105.388C105.154 12.939 105.003 13.0727 105.003 13.3235V14.477C105.003 14.711 105.137 14.8615 105.388 14.8615H113.429L105.104 30.2914C105.037 30.4252 105.02 30.7428 105.02 30.8598V32.1471C105.02 32.3811 105.154 32.5316 105.405 32.5316H115.468C115.702 32.5316 115.853 32.3978 115.853 32.1471V30.9936C115.853 30.7595 115.719 30.6091 115.468 30.6091H107.427L115.753 15.0119C115.803 14.8448 115.836 14.7277 115.836 14.6107Z" fill="white"/>
<path id="Vector_8" d="M30.4614 29.9739C30.4614 29.9572 30.4446 29.9238 30.4279 29.907L30.4112 29.8903C30.3945 29.8736 30.3778 29.8402 30.3443 29.8067L29.7592 29.2216V15.7476L30.244 15.2628V13.6412C30.244 13.474 30.244 13.3236 30.1437 13.2066C30.0434 13.0728 29.8763 12.9892 29.7091 12.9892H28.8732V7.77347C28.8732 7.58958 28.7729 7.42241 28.6225 7.3221L28.5556 7.28867L28.589 7.2218C28.9234 6.68685 29.0905 6.06831 29.0905 5.44978C29.0905 3.99538 28.121 2.658 26.7167 2.20664L26.6666 2.18992L26.4158 0.635223C26.3489 0.217293 25.9979 0.0334039 25.6802 0.0166867C25.3793 0.0166867 25.045 0.217293 24.9614 0.618506L24.6772 2.17321L24.6271 2.18992C23.2228 2.64129 22.2365 3.97866 22.2365 5.44978C22.2365 6.06831 22.4037 6.68685 22.738 7.2218L22.7714 7.28867L22.7046 7.33882C22.5541 7.43912 22.4705 7.60629 22.4705 7.79018V11.936H21.3505V9.24458L21.735 8.8768V7.52271C21.735 7.2218 21.4842 6.98776 21.2 6.98776H19.6286C19.5116 6.98776 19.3779 7.00448 19.2943 7.10478L18.9766 7.47256H18.4918L18.6256 7.05463C18.659 6.88746 18.6256 6.72028 18.5086 6.58655C18.4083 6.45281 18.2411 6.36922 18.0572 6.36922H12.6408C12.4737 6.36922 12.2898 6.45281 12.1895 6.58655C12.0724 6.72028 12.039 6.90417 12.0892 7.08806L12.156 7.47256H11.6545L11.387 7.10478C11.3034 7.00448 11.1697 6.98776 11.0527 6.98776H9.48127C9.18036 6.98776 8.94632 7.2218 8.94632 7.52271V8.8768L9.33082 9.24458V11.9026H8.21077V7.77347C8.21077 7.58958 8.12718 7.42241 7.96001 7.3221L7.89314 7.27195L7.92658 7.20508C8.26092 6.67013 8.42809 6.0516 8.42809 5.43306C8.42809 3.97866 7.45849 2.64129 6.05425 2.17321H6.0041L5.75334 0.618506C5.66975 0.183859 5.31869 -3.05176e-05 5.01778 -3.05176e-05C4.65 -3.05176e-05 4.36581 0.250727 4.29894 0.601789L4.01475 2.15649L3.9646 2.17321C2.56035 2.62457 1.59076 3.96195 1.59076 5.43306C1.59076 6.0516 1.75793 6.67013 2.09227 7.20508L2.12571 7.27195L2.05884 7.3221C1.90838 7.42241 1.8248 7.58958 1.8248 7.77347V13.0227H1.00565C0.838483 13.0227 0.671311 13.1063 0.571008 13.24C0.487422 13.357 0.470705 13.5075 0.470705 13.6579V15.2962L0.938786 15.7141V29.2216L0.387119 29.8235C0.286815 29.9238 0.236664 30.0575 0.236664 30.1912V32.0301C0.236664 32.331 0.487422 32.5818 0.788331 32.5818H7.7594L8.91289 31.3949H21.7684L22.9386 32.5818H29.9598C30.2608 32.5818 30.4948 32.331 30.4948 32.0301V30.3584C30.5115 30.2915 30.4948 30.0408 30.4614 29.9739ZM29.0905 31.0271H23.6073L22.4204 29.8402H8.22748L7.04056 31.0271H1.79136V30.559L2.49349 29.8402V15.4801L2.0254 15.0454V14.3266H3.3795V8.50902L3.83086 8.05766V6.92089C3.76399 6.87074 3.71384 6.82059 3.66369 6.77043C3.54667 6.65341 3.44637 6.51968 3.36278 6.36922C3.22904 6.10175 3.14546 5.80084 3.14546 5.48321C3.14546 4.46346 3.98132 3.6276 5.00107 3.6276C6.02081 3.6276 6.85667 4.46346 6.85667 5.48321C6.85667 5.90114 6.72294 6.26892 6.4889 6.58655C6.47218 6.60326 6.45546 6.6367 6.43874 6.65341L6.42203 6.67013C6.38859 6.70357 6.35516 6.737 6.32172 6.77043C6.27157 6.82059 6.22142 6.87074 6.17127 6.90417V8.05766L6.60592 8.50902V13.4406H9.99951L10.8354 12.588V8.8768H13.8277V7.92392H16.8536V8.89352L19.8459 8.8768V12.5044L20.7654 13.4406H24.0754V8.49231L24.5268 8.04094V6.90417C24.4599 6.85402 24.393 6.78715 24.3261 6.72028C24.2258 6.61998 24.1423 6.50296 24.0754 6.36922C23.9249 6.10175 23.8413 5.78412 23.8413 5.46649C23.8413 4.44674 24.6772 3.61088 25.697 3.61088C26.7167 3.61088 27.5526 4.44674 27.5526 5.46649C27.5526 5.86771 27.4188 6.2522 27.2015 6.55311C27.1848 6.58655 27.1681 6.60326 27.1346 6.6367L27.1179 6.65341C27.0845 6.68685 27.0678 6.72028 27.0343 6.75372C26.9842 6.80387 26.934 6.85402 26.8839 6.90417V8.04094L27.3352 8.45887V14.3099H28.7061V15.129L28.2213 15.6138V29.8903L29.1073 30.7763V31.0271H29.0905Z" fill="white"/>
</g>
</g>
<defs>
<clipPath id="clip0_143_158">
<rect width="115.599" height="32.5818" fill="white" transform="translate(0.236664 -3.05176e-05)"/>
</clipPath>
</defs>
</svg>
