<svg width="107" height="32" viewBox="0 0 107 32" fill="none" xmlns="http://www.w3.org/2000/svg">
<g id="Frame" clip-path="url(#clip0_143_168)">
<path id="Vector" d="M20.2036 6.45815L0.363647 6.39996L0.480011 32H8.27637V21.76H18.4582V16.8145H8.10183V11.3454L20.1455 11.2872L20.2036 6.45815Z" fill="white"/>
<path id="Vector_2" d="M28.2909 13.6145H21.3672V31.9825H28.2909V13.6145Z" fill="white"/>
<path id="Vector_3" d="M28.4073 6.45822H21.3091V11.2815H28.4073V6.45822Z" fill="white"/>
<path id="Vector_4" d="M57.7891 20.0727V3.49088H69.8327V10.0072H61.3382V14.9527C64.2472 10.24 73.44 9.25088 77.7454 13.6727C78.0363 8.14542 80.7127 2.73451 86.1818 0.116333L86.4727 -3.05176e-05H56.0436V2.09451H44.9309V9.77451H54.4145V20.0727H57.7891ZM100.727 13.8472H100.262V10.5891H99.9709V9.59997C100.045 9.53412 100.103 9.45339 100.143 9.36313C100.184 9.27286 100.204 9.17511 100.204 9.07633C100.204 8.8603 100.118 8.65312 99.965 8.50036C99.8123 8.3476 99.6051 8.26179 99.3891 8.26179C99.173 8.26179 98.9659 8.3476 98.8131 8.50036C98.6603 8.65312 98.5745 8.8603 98.5745 9.07633C98.5861 9.2733 98.6688 9.45937 98.8072 9.59997V10.5309H98.5163V13.7891H96.7127V10.9382L96.8291 10.7054H90.8945L91.0109 10.9382V13.7891H89.2072V10.5309H88.9163V9.54179C88.99 9.47594 89.0488 9.39521 89.0889 9.30494C89.129 9.21468 89.1495 9.11693 89.1491 9.01815C89.1566 8.88292 89.1302 8.74796 89.0725 8.62547C89.0147 8.50298 88.9272 8.39683 88.8181 8.31663C88.709 8.23643 88.5816 8.18471 88.4474 8.16615C88.3132 8.14758 88.1766 8.16277 88.0498 8.21032C87.923 8.25788 87.81 8.3363 87.7211 8.4385C87.6323 8.5407 87.5703 8.66345 87.5408 8.79563C87.5113 8.92782 87.5152 9.06527 87.5522 9.19556C87.5892 9.32584 87.6581 9.44484 87.7527 9.54179V10.4727H87.4618V13.7309H86.9963V21.8763L86.6472 22.4581V22.8654H101.018V22.4581L100.669 21.8763V13.7309L100.727 13.8472Z" fill="white"/>
<path id="Vector_5" d="M97.9345 -3.05176e-05C98.0509 0.0581513 99.04 1.04724 99.04 1.91997C99.04 2.7927 97.2945 3.4327 97.2945 3.4327C96.1891 2.85088 95.3163 2.09451 94.3272 1.80361C82.2836 -2.21094 77.2218 13.4982 84.0291 23.0982C92 34.3854 105.033 25.4254 105.033 25.4254V27.7527C91.709 36.0145 82.4581 30.4291 79.0836 22.0509H67.04V22.9818C67.1563 25.2509 69.0181 25.2509 69.0181 25.2509C71.229 25.7163 72.9745 23.9127 72.9745 23.9127H78.5018V25.2509C73.3236 32.4654 64.3054 28.4509 64.3054 28.4509C62.9729 27.8008 61.9046 26.7119 61.28 25.3672V30.4291H57.149V32H106.196V-3.05176e-05H97.9345ZM101.484 13.8472L101.135 14.1382V16.8727H101.425V17.3382L101.135 17.6291V19.4909H101.425V19.9563L101.135 20.2472V21.9927L101.425 22.2836V23.5054H86.1818V22.5745L86.4727 21.9927V20.2472L86.1818 19.9563V19.4909H86.4727V17.6291L86.1818 17.3382V16.8727H86.4727V14.1382L86.1236 13.8472V13.3818H86.9381V10.1236H87.1709V9.89088C87.04 9.65835 86.9606 9.4004 86.9381 9.13451C86.944 8.83466 87.0505 8.54548 87.2404 8.31336C87.4303 8.08125 87.6927 7.91965 87.9854 7.85451V7.73815C87.9391 7.66988 87.9185 7.58744 87.9272 7.50542C87.9272 7.46026 87.9377 7.41572 87.9579 7.37533C87.9781 7.33493 88.0075 7.29979 88.0436 7.2727V6.34179C88.0436 6.31093 88.0559 6.28133 88.0777 6.25951C88.0995 6.23768 88.1291 6.22542 88.16 6.22542C88.1908 6.22542 88.2204 6.23768 88.2422 6.25951C88.2641 6.28133 88.2763 6.31093 88.2763 6.34179V7.2727C88.3125 7.29979 88.3418 7.33493 88.362 7.37533C88.3822 7.41572 88.3927 7.46026 88.3927 7.50542C88.4014 7.58744 88.3808 7.66988 88.3345 7.73815V7.85451C88.6273 7.91965 88.8896 8.08125 89.0795 8.31336C89.2695 8.54548 89.3759 8.83466 89.3818 9.13451C89.3593 9.4004 89.2799 9.65835 89.1491 9.89088V10.1236H89.44V13.3818H90.3127V11.0545L90.08 10.8218V10.4727L90.3127 10.3563L90.4291 10.1236H90.7781L91.0109 10.4145H92.4072L92.64 10.1236H92.989L93.2218 10.4145H93.8036L94.0363 10.1236H94.3854L94.6181 10.4145H96.0727L96.3054 10.1236H96.6545L96.7709 10.3563L97.0036 10.4727V10.8218L96.7709 11.0545V13.3236H97.5854V10.0654H97.8763V9.8327C97.7454 9.60017 97.6661 9.34222 97.6436 9.07633C97.6578 8.89487 97.7089 8.71821 97.7937 8.55716C97.8785 8.39612 97.9953 8.25406 98.1369 8.1397C98.2785 8.02533 98.4419 7.94105 98.6172 7.89201C98.7925 7.84298 98.9759 7.83022 99.1563 7.85451V7.73815C99.1306 7.70573 99.1122 7.6682 99.1021 7.62806C99.0921 7.58793 99.0907 7.54612 99.0981 7.50542C99.0981 7.46026 99.1087 7.41572 99.1289 7.37533C99.1491 7.33493 99.1784 7.29979 99.2145 7.2727L99.3309 6.34179C99.3309 6.28361 99.3309 6.22542 99.389 6.22542C99.4199 6.22542 99.4495 6.23768 99.4713 6.25951C99.4932 6.28133 99.5054 6.31093 99.5054 6.34179V7.2727C99.5415 7.29979 99.5709 7.33493 99.5911 7.37533C99.6113 7.41572 99.6218 7.46026 99.6218 7.50542C99.6305 7.58744 99.6099 7.66988 99.5636 7.73815V7.85451C99.8563 7.91965 100.119 8.08125 100.309 8.31336C100.499 8.54548 100.605 8.83466 100.611 9.13451C100.588 9.4004 100.509 9.65835 100.378 9.89088V10.1236H100.669V13.3818H101.484V13.8472Z" fill="white"/>
<path id="Vector_6" d="M67.3891 19.2H72.5673C73.4982 19.2 69.7746 12.9163 66.9818 18.6182C66.8073 18.9091 66.9818 19.2 67.3891 19.2Z" fill="white"/>
<path id="Subtract" fill-rule="evenodd" clip-rule="evenodd" d="M31.9563 17.0473C34.5745 12.7418 39.9273 12.2182 39.9273 12.2182C54.7054 10.0073 56.4509 31.9418 41.6145 31.9418C30.0363 32 29.3382 21.3527 31.9563 17.0473ZM45.8036 21.9938C45.8036 21.9934 45.8036 21.9931 45.8036 21.9928C45.8036 19.4543 43.7979 17.3964 41.3236 17.3964C38.8494 17.3964 36.8436 19.4543 36.8436 21.9928C36.8436 22.0329 36.8441 22.0729 36.8451 22.1128C36.9036 24.4537 38.668 26.3594 40.9102 26.5698C41.0464 26.5826 41.1843 26.5892 41.3236 26.5892C42.5412 26.5892 43.6453 26.0908 44.4528 25.2821C45.286 24.4476 45.8034 23.2827 45.8036 21.9938Z" fill="white"/>
</g>
<defs>
<clipPath id="clip0_143_168">
<rect width="105.891" height="32" fill="white" transform="translate(0.363647)"/>
</clipPath>
</defs>
</svg>
