<svg width="55" height="32" viewBox="0 0 55 32" fill="none" xmlns="http://www.w3.org/2000/svg">
<g opacity="0.56">
<g opacity="0.72">
<path d="M24.1049 30.5937C25.9799 32.4688 29.0201 32.4688 30.8951 30.5937L37.0262 24.4626L30.2359 17.6724L28.3362 19.5721C27.8744 20.0339 27.1256 20.0339 26.6638 19.5721L24.7641 17.6724L17.9738 24.4626L24.1049 30.5937Z" fill="white"/>
<path d="M54.2087 7.28009L47.4184 0.489807L40.3709 7.53732L47.1612 14.3276L54.2087 7.28009Z" fill="white"/>
<path d="M7.58156 0.489807L0.791275 7.2801L7.83879 14.3276L14.6291 7.53732L7.58156 0.489807Z" fill="white"/>
</g>
<path d="M7.58156 31.5102L0.791276 24.7199L7.83879 17.6724L8.67498 16.8362L9.51117 16L16.3015 9.20971L17.1376 8.37353L17.9738 7.53734L24.1049 1.40631C25.9799 -0.46877 29.0201 -0.468771 30.8951 1.40631L37.0262 7.53734L37.8624 8.37352L38.6985 9.20971L45.4888 16L46.325 16.8362L47.1612 17.6724L54.2087 24.7199L47.4184 31.5102L40.3709 24.4627L39.5347 23.6265L38.6985 22.7903L31.9083 16L31.0721 15.1638L30.2359 14.3276L28.3362 12.4279C27.8744 11.9661 27.1256 11.9661 26.6638 12.4279L24.7641 14.3276L23.9279 15.1638L23.0917 16L16.3015 22.7903L15.4653 23.6265L14.6291 24.4627L7.58156 31.5102Z" fill="white"/>
</g>
</svg>
