<svg width="153" height="24" viewBox="0 0 153 24" fill="none" xmlns="http://www.w3.org/2000/svg">
<path fill-rule="evenodd" clip-rule="evenodd" d="M53.5787 0V23.6364H57.9423V20.8244C57.9661 20.8772 57.9903 20.9297 58.015 20.9818C58.4514 21.8788 59.0696 22.6061 59.8696 23.1636C60.6938 23.7212 61.809 24 63.215 24C64.2574 24 65.2271 23.7818 66.1241 23.3455C67.0453 22.9091 67.8332 22.2788 68.4877 21.4545C69.1423 20.6303 69.6635 19.6364 70.0514 18.4727C70.4392 17.3091 70.6332 16 70.6332 14.5455C70.6332 13.0667 70.4392 11.7455 70.0514 10.5818C69.6877 9.41819 69.1665 8.43637 68.4877 7.63637C67.8332 6.81213 67.0453 6.18183 66.1241 5.74547C65.2271 5.3091 64.2574 5.09092 63.215 5.09092C61.809 5.09092 60.6938 5.36971 59.8696 5.92728C59.0696 6.48486 58.4514 7.21213 58.015 8.1091C57.9903 8.15989 57.9661 8.21107 57.9423 8.26264V0H53.5787ZM58.9241 19.0182C58.1968 17.9758 57.8332 16.4849 57.8332 14.5455C57.8332 12.5818 58.1968 11.0909 58.9241 10.0727C59.6514 9.03031 60.718 8.5091 62.1241 8.5091C63.5302 8.5091 64.5968 9.03031 65.3241 10.0727C66.0514 11.0909 66.415 12.5818 66.415 14.5455C66.415 16.5091 66.0514 18.0121 65.3241 19.0546C64.5968 20.0727 63.5302 20.5818 62.1241 20.5818C60.718 20.5818 59.6514 20.0606 58.9241 19.0182Z" fill="white"/>
<path fill-rule="evenodd" clip-rule="evenodd" d="M38.8111 19.0546C38.2054 18.2144 37.8438 17.075 37.7263 15.6364H50.4839L50.5202 14.5455C50.5202 11.6121 49.7566 9.3091 48.2293 7.63637C46.7263 5.93941 44.6536 5.09092 42.0111 5.09092C39.3687 5.09092 37.2839 5.93941 35.7566 7.63637C34.2293 9.3091 33.4657 11.6121 33.4657 14.5455C33.4657 17.503 34.2293 19.8182 35.7566 21.4909C37.2839 23.1636 39.3687 24 42.0111 24C44.1445 24 45.9021 23.4545 47.2839 22.3636C48.6899 21.2485 49.6475 19.7091 50.1566 17.7455H45.8293C45.5142 18.6909 45.0414 19.4061 44.4111 19.8909C43.7808 20.3515 42.9808 20.5818 42.0111 20.5818C40.6293 20.5818 39.5627 20.0727 38.8111 19.0546ZM37.818 12.6546H46.168C46.0024 11.5946 45.6835 10.734 45.2111 10.0727C44.4839 9.03031 43.4172 8.5091 42.0111 8.5091C40.6051 8.5091 39.5263 9.03031 38.7748 10.0727C38.3025 10.734 37.9835 11.5946 37.818 12.6546Z" fill="white"/>
<path d="M19.076 23.6364H24.3488L30.5306 5.45456H25.876L21.6335 18.7958L17.6579 5.45456H13.7669L9.80509 18.8392L5.54877 5.45456H0.894226L7.07604 23.6364H12.3488L15.7124 12.0376L19.076 23.6364Z" fill="white"/>
<path d="M73.5825 23.6364H90.6734V19.5273H84.6007V11.1273C84.6007 9.26062 84.1159 7.85456 83.1462 6.9091C82.2007 5.93941 80.8068 5.45456 78.9643 5.45456H73.5825V9.81819H79.7643C79.8613 9.81819 79.934 9.83031 79.9825 9.85455C80.0553 9.85455 80.1037 9.86668 80.128 9.89092C80.1765 9.91516 80.2007 9.96365 80.2007 10.0364C80.2249 10.1091 80.2371 10.1939 80.2371 10.2909V19.5273H73.5825V23.6364Z" fill="white"/>
<path d="M80.0916 3.52729H84.1643V1.58946e-05H80.0916V3.52729Z" fill="white"/>
<path d="M107.912 22C109.366 20.6667 110.251 18.8 110.566 16.4H106.348C106.154 17.7818 105.706 18.8242 105.003 19.5273C104.3 20.2303 103.367 20.5818 102.203 20.5818C100.821 20.5818 99.7544 20.0727 99.0029 19.0546C98.2514 18.0121 97.8756 16.5091 97.8756 14.5455C97.8756 12.5818 98.2392 11.0909 98.9665 10.0727C99.718 9.03031 100.797 8.5091 102.203 8.5091C103.318 8.5091 104.215 8.83637 104.894 9.49092C105.597 10.1455 106.07 11.1152 106.312 12.4H110.53C110.167 10.097 109.257 8.30304 107.803 7.01819C106.373 5.73334 104.506 5.09092 102.203 5.09092C99.5604 5.09092 97.4756 5.93941 95.9483 7.63637C94.421 9.3091 93.6574 11.6121 93.6574 14.5455C93.6574 17.503 94.421 19.8182 95.9483 21.4909C97.4756 23.1636 99.5604 24 102.203 24C104.579 24 106.482 23.3333 107.912 22Z" fill="white"/>
<path fill-rule="evenodd" clip-rule="evenodd" d="M130.575 14.5455C130.575 11.6121 129.811 9.3091 128.284 7.63637C126.781 5.93941 124.708 5.09092 122.066 5.09092C119.423 5.09092 117.338 5.93941 115.811 7.63637C114.284 9.3091 113.52 11.6121 113.52 14.5455C113.52 17.503 114.284 19.8182 115.811 21.4909C117.338 23.1636 119.423 24 122.066 24C124.732 24 126.817 23.1636 128.32 21.4909C129.823 19.8182 130.575 17.503 130.575 14.5455ZM126.356 14.5455C126.356 16.5091 125.993 18.0121 125.266 19.0546C124.538 20.0727 123.472 20.5818 122.066 20.5818C120.684 20.5818 119.617 20.0727 118.866 19.0546C118.114 18.0121 117.738 16.5091 117.738 14.5455C117.738 12.5818 118.102 11.0909 118.829 10.0727C119.581 9.03031 120.659 8.5091 122.066 8.5091C123.472 8.5091 124.538 9.03031 125.266 10.0727C125.993 11.0909 126.356 12.5818 126.356 14.5455Z" fill="white"/>
<path d="M151.379 11.8182L147.015 11.7818C147.015 11.3455 146.93 10.9455 146.76 10.5818C146.615 10.1939 146.36 9.86668 145.997 9.60001C145.657 9.33334 145.209 9.12728 144.651 8.98183C144.118 8.81213 143.475 8.72728 142.724 8.72728C142.142 8.72728 141.609 8.76365 141.124 8.83637C140.639 8.88486 140.203 8.99395 139.815 9.16365C139.451 9.33334 139.16 9.55152 138.942 9.81819C138.748 10.0606 138.651 10.3758 138.651 10.7636C138.651 11.4182 138.978 11.8909 139.633 12.1818C140.312 12.4485 141.148 12.6546 142.142 12.8C143.136 12.9212 144.215 13.0424 145.379 13.1636C146.542 13.2849 147.621 13.5273 148.615 13.8909C149.609 14.2303 150.433 14.7515 151.088 15.4545C151.766 16.1576 152.106 17.1515 152.106 18.4364C152.106 19.2606 151.875 20.0121 151.415 20.6909C150.954 21.3455 150.312 21.9152 149.488 22.4C148.663 22.8606 147.669 23.2242 146.506 23.4909C145.342 23.7576 144.082 23.8909 142.724 23.8909C141.172 23.8909 139.815 23.7212 138.651 23.3818C137.512 23.0424 136.566 22.5576 135.815 21.9273C135.063 21.297 134.494 20.5576 134.106 19.7091C133.742 18.8364 133.56 17.8667 133.56 16.8H137.924C137.924 18.0849 138.336 19.0061 139.16 19.5636C140.009 20.097 141.197 20.3636 142.724 20.3636C144.324 20.3636 145.56 20.1939 146.433 19.8545C147.306 19.5152 147.742 18.9091 147.742 18.0364C147.742 17.4788 147.403 17.0788 146.724 16.8364C146.069 16.5697 145.245 16.3758 144.251 16.2546C143.257 16.1333 142.178 16.0121 141.015 15.8909C139.851 15.7697 138.772 15.5394 137.779 15.2C136.785 14.8364 135.948 14.303 135.269 13.6C134.615 12.897 134.288 11.9273 134.288 10.6909C134.288 9.84243 134.494 9.0788 134.906 8.40001C135.318 7.72122 135.888 7.15153 136.615 6.69092C137.366 6.20607 138.263 5.83031 139.306 5.56365C140.348 5.29698 141.488 5.16365 142.724 5.16365C144.009 5.16365 145.185 5.33335 146.251 5.67274C147.318 5.98789 148.227 6.43638 148.979 7.01819C149.754 7.60001 150.348 8.30304 150.76 9.12728C151.172 9.92728 151.379 10.8243 151.379 11.8182Z" fill="white"/>
</svg>
